<?xml version="1.0" encoding="utf-8"?>
<!-- Generator: Adobe Illustrator 25.4.1, SVG Export Plug-In . SVG Version: 6.00 Build 0)  -->
<svg version="1.1" id="Calque_1" xmlns="http://www.w3.org/2000/svg" xmlns:xlink="http://www.w3.org/1999/xlink" x="0px" y="0px"
	 width="774.3px" height="221.3px" viewBox="0 0 774.3 221.3" style="enable-background:new 0 0 774.3 221.3;" xml:space="preserve"
	>
<style type="text/css">
	.st0{fill:#FFFFFF;}
</style>
<g>
	<g>
		<path class="st0" d="M267,105.9h-11c-2.1,0-3.4-1.3-3.4-3.4s1.3-3.4,3.4-3.4h22.5v-8.8h-23.3c-6.8,0-12.1,5.3-12.1,12.1
			c0,7.2,5,12.1,12.1,12.1h11c2.1,0,3.4,1.3,3.4,3.4s-1.3,3.4-3.4,3.4h-23.1v8.8H267c7.6,0,12.1-6.2,12.1-12.1
			C279.2,110.8,274.2,105.9,267,105.9L267,105.9z M400.1,105.9h-18.8V90.3h-9.5v39.8h9.5v-15.5h18.8v15.5h9.5V90.3h-9.5V105.9z
			 M416.6,90.3h9.7v39.8h-9.7V90.3z M458.5,90.3h-24.1v8.8h23.3c2.1,0,3.4,1.3,3.4,3.4l0,3.4h-15.7c-7.1,0-12.1,5-12.1,12.1v12.1
			h9.5V118c0-2,1.5-3.4,3.7-3.4h14.6l0,15.5h9.5l0-27.7C470.6,95.7,465.3,90.3,458.5,90.3L458.5,90.3z M508.9,90.4h-23.7v4h22.7
			c4.2,0,7.3,3,7.3,7.3l0,6.5h-18.7c-6.8,0-11.3,4.5-11.3,11.3l0,10.6h5v-10.6c0-4.2,3.1-7.3,7.3-7.3h17.7l0,17.9h5l0-28.4
			C520.2,95.4,515.2,90.4,508.9,90.4L508.9,90.4z M562.2,123.4l-31.2-33h-4.4v39.7h4.9V97.4l31.2,32.6h4.4V90.4h-4.9V123.4z
			 M571.5,94.5h15.3v35.6h4.8V94.5h15.3v-4.1h-35.3V94.5z M611.8,90.4h4.9v39.7h-4.9V90.4z M709.5,90.4h-4.9v39.7h24.8V126h-19.9
			L709.5,90.4z M732.7,90.4h4.9v39.7h-4.9V90.4z M763.3,108.2h-8.7c-4,0-6.9-2.9-6.9-6.9c0-4,2.9-6.9,6.9-6.9h19.2v-4.1h-20.2
			c-6.1,0-10.9,4.8-10.9,10.9c0,6.5,4.4,10.9,10.9,10.9h8.7c4,0,6.9,2.9,6.9,6.9c0,4-2.9,6.9-6.9,6.9h-19.7v4.1h20.7
			c6.8,0,10.9-5.6,10.9-10.9C774.3,112.6,769.9,108.2,763.3,108.2L763.3,108.2z M353.8,90.3l-24.6,0v39.8h9.5v-13.7h15.1
			c7.2,0,13.1-5.9,13.1-13.1S361,90.3,353.8,90.3L353.8,90.3z M353.3,107.7h-14.6v-8.6l14.6,0c2.4,0,4.3,1.9,4.3,4.3
			C357.6,105.8,355.7,107.7,353.3,107.7z M679.9,89.8c-11.4,0-20.6,9.2-20.6,20.4c0,12,8.5,20.4,20.6,20.4
			c11.1,0,20.5-9.3,20.5-20.4C700.4,98.2,692,89.8,679.9,89.8z M679.9,126.4c-8.8,0-15.6-7.1-15.6-16.2S671.1,94,679.9,94
			c8.9,0,15.5,7,15.5,16.2C695.4,119.5,688.7,126.4,679.9,126.4z M645.1,90.4l-21.2,0v39.7h4.9v-15.7h16.2c6.6,0,12-5.4,12-12
			C657.1,95.8,651.7,90.4,645.1,90.4z M644.6,110.3h-15.7V94.5h15.7c4.3,0,7.9,3.5,7.9,7.9S648.9,110.3,644.6,110.3z M303.6,89.8
			c-11.4,0-20.6,9.2-20.6,20.4c0,12,8.5,20.4,20.6,20.4c11.1,0,20.5-9.3,20.5-20.4C324.1,98.2,315.7,89.8,303.6,89.8z M303.6,121.8
			c-6.2,0-11.1-5.1-11.1-11.6s4.9-11.6,11.1-11.6c6.2,0,11,5,11,11.6C314.6,116.8,309.9,121.8,303.6,121.8z M80,126.3
			c0-1.8-1.5-3.3-3.3-3.3c-1.8,0-3.3,1.5-3.3,3.3s1.5,3.3,3.3,3.3C78.5,129.7,80,128.2,80,126.3z M76.8,110.7c0-2.1-1.6-3.8-3.7-3.8
			c-2.1,0-3.8,1.6-3.8,3.7c0,0,0,0.1,0,0.1c0,2.1,1.7,3.7,3.8,3.7C75.1,114.4,76.7,112.8,76.8,110.7z M84.9,137.2
			c-1.8,0-3.4,1.4-3.4,3.3c0,1.8,1.4,3.4,3.3,3.4c0,0,0.1,0,0.1,0c1.8,0,3.3-1.6,3.3-3.4C88.2,138.7,86.7,137.3,84.9,137.2z
			 M147.1,106.8c-0.8-0.1-1.6-0.1-2.2,0.1c-0.3,0.1-0.6,0.2-0.9,0.3c-0.7,0.3-3.6,1-3.6,2c0,0.1,0,0.2,0.1,0.3
			c1.6,1.2,4.4,1.6,6.1,1.4c0.7-0.1,1.4-0.3,1.6-0.9c0-0.1,0.1-0.2,0.1-0.3C148.4,108.6,148,107.3,147.1,106.8z M65.3,121.4
			c0-2.9-2.4-5.3-5.3-5.3s-5.3,2.4-5.3,5.3s2.4,5.3,5.3,5.3S65.3,124.3,65.3,121.4z M78.7,151.4c-1.9,0-3.5,1.5-3.5,3.4
			s1.5,3.5,3.4,3.5c0,0,0.1,0,0.1,0c1.9,0,3.4-1.6,3.4-3.5C82.1,152.9,80.6,151.4,78.7,151.4z M68.1,135.2c-2.4,0-4.4,2-4.4,4.4
			s2,4.4,4.4,4.4c2.4,0,4.4-2,4.4-4.4C72.5,137.2,70.5,135.2,68.1,135.2L68.1,135.2z M60.5,104.9c2.4,0,4.4-2,4.4-4.4
			c0-2.4-2-4.4-4.4-4.4c-2.4,0-4.4,2-4.4,4.4S58.1,104.9,60.5,104.9z M95.5,106.7c0.5-0.1,1.2-0.7,1.7-1.1c3.4-3.2,5.3-4.3,10.2-3.3
			c-0.3,1-1.8,2-2.6,2.6c2,1.1,5.6,0.8,7.3-0.7c0,0-0.8-0.3-1.7-0.9s-1.2-1.2-1.2-1.2c4.3-1.7,7.8,0.2,10.1,1.2
			c0.3,0.1,1.4,0.7,1.8,1.1c0,0,0.9-0.7,0.9-2.2c0.1-2.6,0.9-3.8,0.5-3.4c-0.6,0.5-1.4,1.3-1.9,1.2c-0.1,0-0.2-0.1-0.3-0.1
			c-0.8-0.5-1.6-1-2.4-1.4c-1-0.5-2-0.9-3.1-1.2c-2.5-0.7-5.1-0.9-6.8-0.9c-5.1,0.1-7.1,0.8-8.1,1.2c-1.1,0.4-2,0.7-3.2,0.9
			c-0.4,0.1-0.8,0.4-0.9,0.8c-0.1,0.4-1.6,1.9-1.4,5.5C94.6,105.8,95,106.3,95.5,106.7L95.5,106.7z M109.1,107.8
			c-0.8-0.4-1.9-0.3-2.7-0.3c-0.2,0-0.4,0-0.6,0.1c-0.6,0.2-2.6,0.9-3.2,1.7c0,0.2,0.1,0.4,0.4,0.6c1.9,1.4,6.1,1.2,6.7,0
			C109.9,109.1,109.7,108.1,109.1,107.8z M80.5,83.4c-0.1,2.3,1.8,4.3,4.1,4.3c2.3,0.1,4.3-1.8,4.3-4.1c0-0.1,0-0.1,0-0.2
			c-0.1-2.3-2-4.2-4.3-4.1C82.4,79.3,80.6,81.1,80.5,83.4z M68.7,86.3c2.4,0,4.4-2,4.4-4.4c0-2.4-2-4.4-4.4-4.4s-4.4,2-4.4,4.4
			S66.3,86.3,68.7,86.3z M76.8,98.1c1.8,0,3.3-1.5,3.3-3.3c0-1.8-1.5-3.3-3.3-3.3c-1.8,0-3.3,1.5-3.3,3.3
			C73.4,96.6,74.9,98.1,76.8,98.1L76.8,98.1z M82.6,71.7c2.4,0,4.4-2,4.4-4.4s-2-4.4-4.4-4.4c-2.4,0-4.4,2-4.4,4.4
			C78.2,69.7,80.2,71.7,82.6,71.7z"/>
		<path class="st0" d="M79,151.4c-1.9,0-3.4,1.5-3.4,3.4s1.5,3.4,3.4,3.4c0,0,0,0,0,0c1.9,0,3.4-1.5,3.4-3.4
			C82.4,152.9,80.9,151.4,79,151.4z M80.2,126.4c0-1.8-1.5-3.3-3.3-3.3c-1.8,0-3.3,1.5-3.3,3.3c0,0,0,0,0,0c0,1.8,1.5,3.3,3.3,3.3
			C78.7,129.7,80.2,128.2,80.2,126.4z M147.3,106.8c-0.8-0.1-1.6-0.1-2.2,0.1c-0.3,0.1-0.6,0.2-0.9,0.3c-0.7,0.3-3.6,1-3.6,2
			c0,0.1,0,0.2,0.1,0.3c1.6,1.2,4.4,1.6,6.1,1.4c0.7-0.1,1.4-0.3,1.6-0.9c0-0.1,0.1-0.2,0.1-0.3
			C148.6,108.6,148.2,107.4,147.3,106.8L147.3,106.8z M82.9,71.8c2.4,0,4.4-2,4.4-4.4c0-2.4-2-4.4-4.4-4.4c-2.4,0-4.4,2-4.4,4.4
			C78.5,69.8,80.4,71.8,82.9,71.8z M77,110.8c0-2.1-1.7-3.7-3.7-3.7c-2.1,0-3.7,1.7-3.7,3.7c0,0,0,0,0,0c0,2.1,1.7,3.7,3.7,3.7
			C75.4,114.5,77,112.8,77,110.8z M85.2,137.2c-1.8,0-3.4,1.4-3.4,3.3c0,1.8,1.4,3.4,3.3,3.4c0,0,0.1,0,0.1,0c1.8,0,3.3-1.6,3.3-3.4
			C88.4,138.7,87,137.3,85.2,137.2z M68.3,135.2c-2.4,0-4.4,2-4.4,4.4c0,2.4,2,4.4,4.4,4.4c2.4,0,4.4-2,4.4-4.4
			C72.8,137.2,70.8,135.2,68.3,135.2z M77,98.2c1.8,0,3.3-1.5,3.3-3.3c0-1.8-1.5-3.3-3.3-3.3c0,0,0,0,0,0c-1.8,0-3.3,1.5-3.3,3.3
			C73.7,96.7,75.2,98.2,77,98.2z M69,86.4c2.4,0,4.4-2,4.4-4.4c0-2.4-2-4.4-4.4-4.4c-2.4,0-4.4,2-4.4,4.4
			C64.6,84.4,66.6,86.4,69,86.4z M65.6,121.4c0-2.9-2.4-5.3-5.3-5.3c-2.9,0-5.3,2.4-5.3,5.3s2.4,5.3,5.3,5.3
			C63.3,126.7,65.6,124.3,65.6,121.4z"/>
		<circle class="st0" cx="60.8" cy="100.5" r="4.4"/>
		<path class="st0" d="M80.8,83.5c0,2.3,1.9,4.2,4.2,4.2s4.2-1.9,4.2-4.2s-1.9-4.2-4.2-4.2S80.8,81.1,80.8,83.5z M109.3,107.8
			c-0.8-0.4-1.9-0.3-2.7-0.3c-0.2,0-0.4,0-0.6,0.1c-0.6,0.2-2.6,0.9-3.2,1.7c0,0.2,0.1,0.4,0.4,0.6c1.9,1.4,6.1,1.2,6.7,0
			C110.2,109.1,109.9,108.1,109.3,107.8L109.3,107.8z M95.7,106.8c0.5-0.1,1.2-0.7,1.7-1.1c3.4-3.2,5.3-4.3,10.2-3.3
			c-0.3,1-1.8,2-2.6,2.6c2,1.1,5.5,0.8,7.3-0.7c0,0-0.8-0.3-1.7-0.9c-0.9-0.6-1.2-1.2-1.2-1.2c4.3-1.7,7.8,0.2,10.1,1.2
			c0.3,0.1,1.4,0.7,1.8,1.1c0,0,0.9-0.7,0.9-2.2c0.1-2.6,0.9-3.7,0.5-3.4c-0.6,0.5-1.4,1.3-1.9,1.2c-0.1,0-0.2-0.1-0.3-0.1
			c-0.8-0.5-1.6-1-2.4-1.4c-1-0.5-2-0.9-3.1-1.2c-2.5-0.7-5.1-0.9-6.8-0.9c-5.1,0.1-7.1,0.8-8.1,1.2c-1.1,0.4-2,0.7-3.2,0.9
			c-0.4,0.1-0.8,0.4-0.9,0.8c-0.1,0.4-1.6,1.9-1.4,5.5C94.8,105.9,95.3,106.4,95.7,106.8L95.7,106.8z"/>
		<path class="st0" d="M112.7,0C50.5,0,0,49.5,0,110.7s50.5,110.7,112.7,110.7s112.7-49.5,112.7-110.7S174.9,0,112.7,0z M154.7,97.8
			c-0.9,0.1-1.8-0.2-2.8-0.4c-2.9-0.4-5.9,0.1-7.6,0.3c-0.9,0.1-1.8,0.3-2.7,0.5c-1.5,0.3-4.6,1.4-4.6,1.4s-0.3-1-0.4-1.8
			c-0.2-2.5,4.9-3.7,7.1-3.9c3.9-0.4,7.3,0.1,10.8,1.9C155.4,96.4,156.2,97.6,154.7,97.8z M110.5,23.8c0.6-1.2,1.7-2.1,3-2.5
			c2.7-0.9,5.5,0.6,6.4,3.2c0,0,0,0,0,0c0.9,2.7-0.6,5.6-3.3,6.4c-0.5,0.2-1,0.3-1.6,0.3c-2.2,0-4.2-1.4-4.8-3.5
			C109.8,26.4,109.9,25,110.5,23.8z M90.2,32.5c0.4-1.6,1.5-2.9,2.9-3.7c0.9-0.5,1.9-0.8,3-0.8c2.2,0,4.2,1.2,5.3,3.1
			c0.8,1.4,1,3.1,0.6,4.6c-0.4,1.6-1.5,2.9-2.9,3.7c-0.9,0.5-1.9,0.8-3,0.8c-3.4,0-6.1-2.7-6.1-6.1C89.9,33.5,90,33,90.2,32.5z
			 M88.3,44.1c2.3,1.4,3,4.3,1.7,6.6c-1.4,2.3-4.3,3-6.6,1.7l0,0c-2.3-1.4-3-4.3-1.7-6.6S86,42.7,88.3,44.1
			C88.3,44.1,88.3,44.1,88.3,44.1z M81.8,34.8c0.7,0.3,1.3,0.9,1.6,1.6c0.3,0.7,0.3,1.5,0,2.3c-0.7,1.5-2.4,2.2-3.9,1.5
			c-1.5-0.7-2.2-2.4-1.5-3.9C78.6,34.9,80.3,34.2,81.8,34.8C81.8,34.8,81.8,34.8,81.8,34.8z M71.2,25.2c0.4-1,1.2-1.8,2.2-2.3
			c1.2-0.6,2.6-0.6,3.8-0.1c1.1,0.5,2,1.4,2.4,2.5s0.4,2.4-0.1,3.5c-0.4,1-1.2,1.8-2.2,2.3c-1.2,0.6-2.6,0.6-3.8,0.1
			C71.2,30.2,70.2,27.5,71.2,25.2z M61.8,39.2c1.2-1.5,2.9-2.3,4.8-2.3c1.4,0,2.7,0.5,3.7,1.3c1.3,1,2.1,2.5,2.3,4.1
			c0.2,1.6-0.2,3.2-1.2,4.5c-1.2,1.5-2.9,2.3-4.8,2.3c-1.4,0-2.7-0.5-3.7-1.3c-1.3-1-2.1-2.5-2.3-4.1C60.4,42,60.8,40.4,61.8,39.2z
			 M58.5,60c1.5-3,5.2-4.2,8.2-2.7c1.5,0.7,2.6,2,3.1,3.6c0.5,1.5,0.4,3.2-0.4,4.7c-1.5,3-5.2,4.2-8.2,2.7c0,0,0,0,0,0
			c-1.5-0.7-2.5-2-3.1-3.6C57.6,63.1,57.7,61.4,58.5,60z M52.8,51.9c1.2-1.1,3.1-0.9,4.2,0.3c0.5,0.6,0.8,1.4,0.7,2.2s-0.4,1.5-1,2
			c-0.5,0.5-1.2,0.7-1.9,0.7c-1.6,0-3-1.3-3-3C51.8,53.3,52.2,52.5,52.8,51.9z M42.1,43.4c1.3-2.5,4.3-3.5,6.8-2.3c0,0,0,0,0,0
			c1.2,0.6,2.1,1.7,2.5,3c0.4,1.3,0.3,2.7-0.3,3.9c-1.3,2.5-4.3,3.5-6.8,2.3c0,0,0,0,0,0c-1.2-0.6-2.1-1.7-2.5-2.9
			C41.4,46,41.5,44.6,42.1,43.4L42.1,43.4z M55.3,85.2c-0.2,2.3-1.6,4.3-3.7,5.2c-0.9,0.4-1.8,0.5-2.8,0.4c-3.3-0.3-5.9-3.2-5.6-6.5
			c0.2-2.3,1.6-4.3,3.7-5.2c0.9-0.4,1.8-0.5,2.8-0.4C53,78.9,55.5,81.9,55.3,85.2z M36.1,59.7c2.7-3,7.4-3.3,10.4-0.6
			c3,2.7,3.3,7.4,0.6,10.4c0,0-0.1,0.1-0.1,0.1c-2.8,3-7.5,3.1-10.4,0.4C33.7,67.3,33.5,62.7,36.1,59.7z M42,104.9
			c3.1-1.2,6.6,0.5,7.8,3.6c0,0,0,0,0,0c1.1,3-0.3,6.3-3.2,7.6c-0.7,0.3-1.5,0.5-2.3,0.5c-1,0-1.9-0.2-2.8-0.6
			c-1.5-0.7-2.6-1.9-3.2-3.4c-1.1-3,0.3-6.3,3.2-7.6C41.7,105.1,41.8,105,42,104.9z M34.8,78.8c0.5-0.5,1.2-0.7,1.9-0.7
			c0.9,0,1.7,0.4,2.2,1c0.5,0.6,0.8,1.4,0.7,2.2s-0.4,1.5-1,2c-0.5,0.5-1.2,0.7-1.9,0.7c-0.9,0-1.7-0.4-2.2-1
			C33.4,81.8,33.6,79.9,34.8,78.8z M31.2,88.8c3.3-0.4,6.4,2,6.8,5.3c0.4,3.1-1.7,6.1-4.8,6.7c-0.4,0.1-0.8,0.1-1.2,0.1
			c-1.4,0-2.7-0.5-3.7-1.3c-1.3-1-2.1-2.5-2.3-4.1c-0.4-3.1,1.7-6.1,4.8-6.7C30.9,88.8,31,88.8,31.2,88.8z M34.1,111.2
			c0,0.8-0.4,1.5-1,2.1c-1.2,1.1-3.1,1-4.2-0.2c-1.1-1.2-1-3.1,0.2-4.2c1.2-1.1,3.1-1,4.2,0.2C33.9,109.7,34.2,110.4,34.1,111.2
			L34.1,111.2z M20.4,76c0.2-2.6,2.4-4.7,5.1-4.7c1.5,0,2.9,0.6,3.9,1.8c0.9,1,1.3,2.4,1.2,3.7c-0.2,2.6-2.4,4.7-5.1,4.7
			c-2.8,0-5.1-2.3-5.1-5.1C20.4,76.3,20.4,76.2,20.4,76z M8.5,92.9c0-2.9,2.4-5.3,5.3-5.3S19,90,19,92.9s-2.4,5.3-5.3,5.3
			S8.5,95.8,8.5,92.9z M19.5,116.6c-2.2,0.1-4.2-1.3-4.9-3.3c-0.5-1.3-0.4-2.7,0.2-3.9c0.6-1.2,1.6-2.2,2.9-2.6c2.6-1,5.6,0.4,6.5,3
			c0,0,0,0,0,0c0.5,1.3,0.4,2.7-0.2,3.9c-0.6,1.2-1.6,2.2-2.9,2.6C20.6,116.5,20,116.6,19.5,116.6L19.5,116.6z M32.1,146.3
			c-0.1,1.3-0.7,2.6-1.8,3.5c-0.9,0.8-2.1,1.2-3.3,1.2c-1.5,0-2.9-0.6-3.9-1.8c-0.9-1-1.3-2.4-1.2-3.7c0.1-1.3,0.7-2.6,1.8-3.5
			c0.9-0.8,2.1-1.2,3.3-1.2c1.5,0,2.9,0.6,3.9,1.8C31.8,143.6,32.2,145,32.1,146.3z M27.6,131.2c-2.6-2.3-2.8-6.3-0.5-8.8
			s6.3-2.8,8.8-0.5c0,0,0.1,0.1,0.1,0.1c2.5,2.4,2.7,6.3,0.3,8.8C34,133.3,30.1,133.5,27.6,131.2z M35.3,143.5
			c-1.1-1.2-0.9-3.1,0.3-4.2c1.2-1.1,3.1-0.9,4.2,0.3c0.5,0.6,0.8,1.4,0.7,2.2c-0.1,0.8-0.4,1.5-1,2c-0.5,0.5-1.2,0.7-1.9,0.7
			C36.7,144.6,35.9,144.2,35.3,143.5z M39.4,151.7c2.3-2.6,6.3-2.8,8.8-0.5c2.6,2.3,2.8,6.3,0.5,8.8c0,0-0.1,0.1-0.1,0.1
			c-2.4,2.5-6.3,2.7-8.8,0.3C37.4,158.2,37.2,154.3,39.4,151.7z M43.1,136.2c0.1-1.6,0.9-3.1,2.1-4.2c0.5-0.4,1-0.8,1.7-1
			c2.4-1,5.3-0.3,7,1.7c1.1,1.2,1.6,2.8,1.5,4.4c-0.1,1.6-0.9,3.1-2.1,4.2c-2.6,2.2-6.4,1.9-8.6-0.6c0,0,0,0,0,0
			C43.5,139.4,43,137.8,43.1,136.2L43.1,136.2z M52.8,178.6c-0.5,1.2-1.6,2.2-2.8,2.7c-1.3,0.5-2.7,0.5-3.9-0.1
			c-2.6-1.1-3.7-4.1-2.6-6.7c0,0,0,0,0,0c0.5-1.2,1.6-2.2,2.8-2.7c1.3-0.5,2.7-0.5,3.9,0.1C52.8,173,54,176,52.8,178.6
			C52.8,178.6,52.8,178.6,52.8,178.6L52.8,178.6z M57.9,170.5c-1.2,1.1-3.1,1.1-4.2-0.1c-0.5-0.5-0.8-1.2-0.8-1.9
			c0-0.9,0.3-1.7,0.9-2.3c0.6-0.5,1.3-0.8,2.1-0.8c0.8,0,1.5,0.3,2.1,0.9c0.6,0.7,0.8,1.4,0.8,1.9C58.9,169,58.5,169.9,57.9,170.5z
			 M58.8,161.2c-0.3-0.7-0.5-1.4-0.6-2.2c0-0.9,0.1-1.8,0.5-2.6c0.6-1.4,1.7-2.5,3.2-3c1.4-0.6,3-0.5,4.4,0.1c2,0.9,3.3,2.8,3.4,4.9
			c0,0.9-0.1,1.8-0.5,2.6c-0.6,1.4-1.7,2.5-3.2,3c-1.4,0.6-3,0.5-4.4-0.1C60.4,163.4,59.4,162.4,58.8,161.2L58.8,161.2z M73.8,179.5
			c-0.8,2.8-3.6,4.4-6.4,3.7c0,0,0,0,0,0c-1.4-0.4-2.5-1.3-3.2-2.5s-0.9-2.6-0.5-4c0.5-1.9,2.1-3.4,4-3.7c0.3-0.1,0.7-0.1,1-0.1
			c0.5,0,0.9,0.1,1.4,0.2c1.3,0.4,2.5,1.3,3.2,2.5C74,176.7,74.2,178.1,73.8,179.5L73.8,179.5z M78.4,173.9
			c-1.1-1.2-0.9-3.1,0.3-4.2c1.3-1,3.1-0.8,4.2,0.4c1,1.2,0.8,3-0.3,4c-0.5,0.5-1.2,0.7-1.9,0.7C79.8,175,79,174.6,78.4,173.9z
			 M144.5,167.7C144.5,167.7,144.5,167.7,144.5,167.7c-17.2,25.9-35,31.6-47.1,31.8l-3.2-9.3c-2.1,2.6-3.8,5.1-5.4,8.5
			c-4.1-0.9-6.6-2.1-6.6-2.1c2.7-5.8,5.8-10.6,9.2-14.4l-7.5-22.1c-0.9,0.9-2,1.5-3.2,1.9c-3.7,1-7.6-1.2-8.6-5l0,0
			c-0.1-0.2-0.1-0.5-0.2-0.7c-0.7-2.1-2.2-3.9-4.2-4.9c-1.2-0.6-2.5-0.9-3.8-0.9c-1.6,0-3.1,0.4-4.5,1.3c-2.2,1.4-5.2,0.8-6.6-1.5
			c-1.4-2.2-0.8-5.1,1.3-6.5c0.2-0.1,0.4-0.3,0.6-0.5c1.7-1.5,2.7-3.5,2.9-5.8c0.2-2.2-0.5-4.4-2-6.1c-1.6-1.9-3.9-2.9-6.4-2.9
			c-0.5,0-1,0-1.4,0.1c-2.6,0.5-5.2-1.1-5.7-3.7c-0.5-2.6,1.1-5.1,3.7-5.7c0.3-0.1,0.6-0.1,0.9-0.2c0.2-0.1,0.4-0.1,0.6-0.2
			c4-1.7,6.1-6.2,4.8-10.4c-0.9-2.9-3.4-5-6.3-5.6c-2.6-0.6-4.2-3.1-3.7-5.7c0.6-2.6,3.1-4.3,5.7-3.7c0.5,0.1,1,0.1,1.5,0.1
			c1.1,0,2.2-0.2,3.2-0.6c2.9-1.2,5-4,5.2-7.2c0.2-3-1.2-5.7-3.4-7.4l0,0c-2.2-1.5-2.8-4.5-1.3-6.7s4.5-2.8,6.7-1.3l0,0l0,0
			c0.2,0.1,0.3,0.2,0.5,0.3c1.2,0.6,2.5,0.9,3.8,0.9c3.2,0,6.1-1.8,7.5-4.6c1-2,1.2-4.3,0.5-6.4c-0.2-0.6-0.4-1.1-0.7-1.6
			c-1.4-2.2-0.8-5.2,1.4-6.6c2.2-1.4,5.1-0.9,6.6,1.3l0,0c0.1,0.1,0.2,0.2,0.3,0.4c1.6,1.9,3.9,2.9,6.4,2.9c1.1,0,2.2-0.2,3.2-0.6
			c0.8-0.3,1.6-0.8,2.3-1.4c0.2-0.2,0.7-0.7,0.8-0.8l2.9,5.6c-0.1,0.2-1.1,1.4-1.7,2.1l5.1,8.8c1.3-0.9,2.4-1.9,4.2-2.9l-7.4-16.2
			c2.5-2.1,4-3.4,6.9-5.1l1.7,5.4c-0.6,0.4-1.8,1.1-2.5,1.6l4.8,12.2c2.3-1,4.5-2,4.7-2l-4.7-19.3c3.2-1.5,6.3-2.5,9.6-3.1l0.7,5.7
			c-1.2,0.2-2.3,0.5-3.5,0.9l2.7,14.3c1.9-0.5,3.8-0.8,5.9-1.1l-1.5-20.4c3.6-0.3,6.9-0.2,10.6,0.5l-0.3,5.4
			c-1.5-0.2-2.6-0.3-3.8-0.4l0.3,14.6c2.1,0,3.6,0.2,5.7,0.5l1.8-19.2c4.3,1.2,8.2,3.6,8.4,3.7l-0.9,4.4c-0.7-0.4-1.7-0.9-2.5-1.2
			l-2.1,13.3c1.6,0.4,3.2,1,4.8,1.6l3.5-16.2c1.9,1.5,3.7,3.2,5.2,5.3l-1,3.6c-0.5-0.6-1-1.2-1.5-1.7l-2.6,10.7c1,0.5,2,1.1,3.2,1.8
			l3.7-11.6c1.2,2.5,1.8,5.2,0.9,8.1l-2,5.2c1.9,2.7,0,3,0,3c-8.6-5-11.4-1.2-17.2,1.3c-11.6,5-17.4-1.5-23.3,1.3
			c-4.6,2.2-4.1,7.8-7.9,11.4c-3.2,3-6.8,2.7-6.8,2.7c-0.4,0.5-1.7,2.3-1.4,4.6c0.3,2.1,0.9,2.3,6.2,0.9c7-1.8,16.2-1.4,22.5,2.3
			c1.2,0.7,2.1,2.1,2.5,3.9c0.2,0.9,1.1,6.6,1.6,10.2c0.5,3.3,1,7.1,1.7,12c0.2,1.9,0.6,6.7,1.5,7.8c1.5,1.9,4.9,1.6,6.9,0.7
			c1.3-0.7,2-0.9,2-1c0,0,1.1,0.1,1.4,1.6c0.7,4.7-2.4,4-2.5,3.9c-0.9-0.8-1.9,0.1-2,0.2c-2.4,1.1-6-0.1-6.7,0.1
			c-3.4,0.9-8.4,1.1-8.1-2.6c0.1-1.7,1.5-3.3,2.2-4.7c0.8-1.5,0.8-5.9,0.6-7.6c-0.3-5-1.7-6.8-3-7.9c-1-0.8-1.7-1.1-2.4-1.3
			c-0.7-0.2-1.9-0.3-2.2-0.2c-0.1,0-0.1,0.1-0.2,0.2c-1.3,1.2-4.3,2.7-4.8,3c-2.8,1.3-6.7,1.7-10.7,1c-1.3-0.3-4.4-1.5-6.8-2.9
			c-1.3-0.8-2.1-1.5-3.6-1.5c-1.2,0-2.2,1.1-2.4,2.9c-1.6,10.4,7,15.5,11.2,21.6c6.7,9.7,4.5,20.2,13.8,28.4
			c7.6,6.7,21.7,6.6,29,3.6c1.1-0.5,1.9-1,3.1-1.6C145.3,166.4,144.8,167.1,144.5,167.7L144.5,167.7z M123.8,150.1
			c1.3,0.7,4,1.3,5.7,1.3c0.7,0,1.3,0.1,1.9,0.1c2.9,0,4.5-0.4,6.3-0.9c0.6-0.2,1.2-0.3,1.9-0.5c0.2,0,0.3-0.1,0.5-0.1
			c0.3,0,0.5,0.1,0.7,0.2c0,0,0,0.1,0,0.2c-0.4,1.2-3.3,4.4-8,4.7c-0.5,0-1,0.1-1.6,0.1c-3.5,0-10-0.8-12.1-6.5l0-0.1l-0.4,0
			c-2.6,0-4.5-0.3-4.7-0.7c0,0,0-0.1,0.1-0.3c0.1-0.1,0.1-0.1,0.2-0.2l-0.1,0c0.9-0.2,1.6-0.4,2.3-0.6c1.6-0.4,2.7-0.7,3.4-1.3
			c1.8-1.6,4.6-2.6,7.7-2.6c0.7,0,1.3,0,1.9,0.1c0.4,0.1,0.7,0.1,1,0.2c1,0.2,2,0.3,3.2,0.3c1.2,0,2.5-0.1,4.1-0.5
			c0.5-0.1,1.1-0.2,1.6-0.2c1.7,0,2.4,0.7,3.2,1.6c0.3,0.3,0.5,0.6,0.8,0.9c0.6,0.6,1.1,1.2,1,1.4c0,0.1-0.1,0.1-0.2,0.1
			c-0.4,0.1-0.8,0.1-1.2,0.1c-0.9,0-1.5-0.2-2.3-0.4c-0.4-0.1-0.8-0.2-1.2-0.3c-0.5-0.1-0.9-0.2-1.4-0.2c-1.1,0-2.3,0.3-3.2,0.8
			c-0.7,0.4-1.5,0.6-2.3,0.6c-1,0-2-0.3-2.6-0.5l-0.1,0c-0.4-0.1-1.4-0.4-2.7-0.6c-0.5,0-0.9-0.1-1.4-0.1c-1.6,0-3,0.4-4.2,1
			c-0.1,0.1-0.2,0.2-0.2,0.4C121.6,148.4,122.8,149.5,123.8,150.1L123.8,150.1z M154,109.9c0,0.3-0.2,1.3-0.3,1.6
			c-0.9,1.7-3.8,2.7-7.1,2.6c-2.3,0-4.5-0.5-6.6-1.2c-3.5-1.2-7-4.9-1.9-6.7c1.3-0.5,3.7-1.8,5.1-1.9c2.8-0.3,4.7,0.1,7.6,0.2
			c0.3,0,0.6,0,0.7-0.3c0.1-0.2,0-0.6-0.2-0.7c-3.2-2.8-7.1-2.3-11.5-1.6c1.4-1.7,5.4-2.1,7.5-2c2.2,0.1,4.6,1.1,6.2,2.7
			c1.3,1.4,2.1,3.3,2.3,5.1C155.8,108.7,153.9,108.6,154,109.9L154,109.9z M182,172.9c-3.2,3.2-6.7,6.2-10.4,8.9l-10-13.8
			c17.6-12.9,29.1-33.8,29.1-57.2c0-21.4-9.6-40.6-24.6-53.7l11.1-12.9c1.6,1.4,3.2,2.9,4.7,4.4c16.6,16.6,25.7,38.7,25.7,62.1
			S198.6,156.3,182,172.9L182,172.9z"/>
	</g>
</g>
</svg>
